<?xml version="1.0" encoding="utf-8"?>
<!-- Generator: Adobe Illustrator 25.3.0, SVG Export Plug-In . SVG Version: 6.00 Build 0)  -->
<svg version="1.1" id="Livello_1" xmlns="http://www.w3.org/2000/svg" xmlns:xlink="http://www.w3.org/1999/xlink" x="0px" y="0px"
	 viewBox="0 0 16 16" style="enable-background:new 0 0 16 16;" xml:space="preserve">
<style type="text/css">
	.st0{fill:#0000FF;}
</style>
<path class="st0" d="M4,11H2v3h2V11z M9,7H7v7h2V7z M14,2v12h-2V2H14z M12,1c-0.6,0-1,0.4-1,1v12c0,0.6,0.4,1,1,1h2c0.6,0,1-0.4,1-1
	V2c0-0.6-0.4-1-1-1H12z M6,7c0-0.6,0.4-1,1-1h2c0.6,0,1,0.4,1,1v7c0,0.6-0.4,1-1,1H7c-0.6,0-1-0.4-1-1V7z M1,11c0-0.6,0.4-1,1-1h2
	c0.6,0,1,0.4,1,1v3c0,0.6-0.4,1-1,1H2c-0.6,0-1-0.4-1-1V11z"/>
<path class="st0" d="M4.1,15H1.9C1.4,15,1,14.6,1,14.1v-3.2C1,10.4,1.4,10,1.9,10h2.2C4.6,10,5,10.4,5,10.9v3.2
	C5,14.6,4.6,15,4.1,15z"/>
</svg>
